Coordinates
version=1
nRows=14
nColumns=24
inDegrees=yes

Units are S.I. units (second, meters, Newtons, ...)
Angles are in degrees.

endheader
time	pelvis_tilt	pelvis_list	pelvis_rotation	pelvis_tx	pelvis_ty	pelvis_tz	hip_flexion_r	hip_adduction_r	hip_rotation_r	knee_angle_r	ankle_angle_r	subtalar_angle_r	mtp_angle_r	hip_flexion_l	hip_adduction_l	hip_rotation_l	knee_angle_l	ankle_angle_l	subtalar_angle_l	mtp_angle_l	lumbar_extension	lumbar_bending	lumbar_rotation
      3.03000000	     -2.47111505	     -1.92654093	      5.40107399	      0.10516988	      0.96273551	      0.02896489	     12.04500496	      4.77389657	      4.36560619	    -15.86981980	     12.53927018	      0.00000000	      0.00000000	     13.79593231	     -7.15733842	     -1.68732134	    -56.08903195	      5.94797470	      0.00000000	      0.00000000	     -3.94556844	      6.09460417	      0.28851036
      3.04000000	     -2.35614257	     -1.86324190	      5.42423692	      0.10398587	      0.96315659	      0.02998369	     11.33578243	      4.83837368	      4.48312223	    -15.62624575	     12.89187379	      0.00000000	      0.00000000	     14.80328969	     -7.25749576	     -2.11714967	    -56.04714194	      6.74404228	      0.00000000	      0.00000000	     -4.09925091	      6.01369343	      0.50203296
      3.05000000	     -2.23168068	     -1.77208915	      5.44868174	      0.10256314	      0.96357029	      0.03092726	     10.71400870	      4.85906195	      4.48456906	    -15.54595149	     13.08784164	      0.00000000	      0.00000000	     15.80840922	     -7.27331895	     -2.48646679	    -55.83360834	      7.19646510	      0.00000000	      0.00000000	     -4.30605386	      5.90491679	      0.67627557
      3.06000000	     -2.18215498	     -1.70668465	      5.42196028	      0.10131274	      0.96391992	      0.03186233	     10.08420356	      4.90049185	      4.54617611	    -15.29959186	     13.43231979	      0.00000000	      0.00000000	     16.74592773	     -7.27925178	     -2.89478828	    -55.26510815	      7.93445962	      0.00000000	      0.00000000	     -4.38622100	      5.81838984	      0.88969124
      3.07000000	     -2.10907341	     -1.64275643	      5.36161532	      0.09992273	      0.96426512	      0.03277797	      9.50211177	      4.95059197	      4.68422091	    -15.18549326	     13.68620894	      0.00000000	      0.00000000	     17.60588022	     -7.21206308	     -3.19389619	    -54.47809939	      8.63163549	      0.00000000	      0.00000000	     -4.51750008	      5.73262814	      1.13653623
      3.08000000	     -2.05625154	     -1.60841954	      5.33936678	      0.09839034	      0.96457075	      0.03358304	      9.01116984	      5.01347523	      4.65228175	    -15.18013439	     13.85368051	      0.00000000	      0.00000000	     18.47432331	     -7.13559225	     -3.42032999	    -53.50300269	      8.92518371	      0.00000000	      0.00000000	     -4.63987596	      5.68724119	      1.31257377
      3.09000000	     -2.02364662	     -1.38040663	      5.19526334	      0.09691506	      0.96483007	      0.03442085	      8.48512706	      4.87118461	      4.78635928	    -15.08985526	     14.17703286	      0.00000000	      0.00000000	     19.20352476	     -6.85850228	     -3.83677650	    -52.26534170	      9.55617422	      0.00000000	      0.00000000	     -4.75945243	      5.41624885	      1.58820629
      3.10000000	     -2.01756806	     -1.37907792	      5.15202564	      0.09526893	      0.96496457	      0.03510139	      8.06440836	      4.94694702	      4.70802730	    -15.08858170	     14.35878073	      0.00000000	      0.00000000	     20.03274068	     -6.75527093	     -4.01255724	    -50.95047872	      9.70962311	      0.00000000	      0.00000000	     -4.84350741	      5.40345897	      1.75858529
      3.11000000	     -2.07983082	     -1.12210440	      5.00809231	      0.09371713	      0.96503314	      0.03581068	      7.63510064	      4.74357188	      4.75689401	    -14.96214103	     14.69235362	      0.00000000	      0.00000000	     20.74875814	     -6.40295965	     -4.40567193	    -49.35690823	     10.03486317	      0.00000000	      0.00000000	     -4.87051390	      5.08752003	      2.00082087
      3.12000000	     -2.08661051	     -0.90384609	      4.84669622	      0.09198319	      0.96507388	      0.03647156	      7.26948741	      4.59204877	      4.80300656	    -15.05428339	     15.01172754	      0.00000000	      0.00000000	     21.36724793	     -6.07566496	     -4.73683069	    -47.59885122	     10.10652191	      0.00000000	      0.00000000	     -4.99340055	      4.82576474	      2.23768540
      3.13000000	     -2.09850066	     -1.00193357	      4.81305579	      0.09013802	      0.96492455	      0.03699429	      6.94557353	      4.76651385	      4.74161161	    -15.14695103	     15.18791921	      0.00000000	      0.00000000	     22.11135225	     -6.04454421	     -4.83373669	    -45.91696678	     10.11378736	      0.00000000	      0.00000000	     -5.09385404	      4.92976535	      2.36700809
      3.14000000	     -2.12827584	     -0.53025659	      4.52914505	      0.08840904	      0.96491431	      0.03766894	      6.61283291	      4.35048013	      4.93815669	    -15.28811041	     15.68282978	      0.00000000	      0.00000000	     22.48806451	     -5.50555213	     -5.43756557	    -43.70959109	      9.94057855	      0.00000000	      0.00000000	     -5.23775279	      4.36913270	      2.67201601
      3.15000000	     -2.19163728	     -0.44516988	      4.39115788	      0.08664489	      0.96463194	      0.03819499	      6.30325742	      4.33224601	      5.02645788	    -15.31730538	     16.02790471	      0.00000000	      0.00000000	     23.05090360	     -5.31906252	     -5.74014659	    -41.65941706	      9.75295178	      0.00000000	      0.00000000	     -5.30738270	      4.25073275	      2.86913601
      3.16000000	     -2.23571458	     -0.60897547	      4.35267120	      0.08472660	      0.96416810	      0.03858829	      6.05224230	      4.58001497	      5.04800028	    -15.45584781	     16.24266307	      0.00000000	      0.00000000	     23.68631021	     -5.34320784	     -5.80192643	    -39.69135693	      9.67045781	      0.00000000	      0.00000000	     -5.40230360	      4.42237623	      2.95335124
